<?xml version="1.0" encoding="UTF-8" standalone="no"?>
<svg
   width="146mm"
   height="62mm"
   viewBox="-3 -59 146 62"
   version="1.1"
   id="svg1"
   sodipodi:docname="picocontrol-encoder.svg"
   inkscape:version="1.3.2 (091e20e, 2023-11-25)"
   xmlns:inkscape="http://www.inkscape.org/namespaces/inkscape"
   xmlns:sodipodi="http://sodipodi.sourceforge.net/DTD/sodipodi-0.dtd"
   xmlns="http://www.w3.org/2000/svg"
   xmlns:svg="http://www.w3.org/2000/svg"
   xmlns:rdf="http://www.w3.org/1999/02/22-rdf-syntax-ns#"
   xmlns:cc="http://creativecommons.org/ns#"
   xmlns:dc="http://purl.org/dc/elements/1.1/">
  <defs
     id="defs1" />
  <sodipodi:namedview
     id="namedview1"
     pagecolor="#ffffff"
     bordercolor="#666666"
     borderopacity="1.0"
     inkscape:showpageshadow="2"
     inkscape:pageopacity="0.0"
     inkscape:pagecheckerboard="0"
     inkscape:deskcolor="#d1d1d1"
     inkscape:document-units="mm"
     inkscape:zoom="2.6218196"
     inkscape:cx="400.48522"
     inkscape:cy="86.962504"
     inkscape:window-width="1648"
     inkscape:window-height="795"
     inkscape:window-x="138"
     inkscape:window-y="71"
     inkscape:window-maximized="0"
     inkscape:current-layer="svg1"
     showgrid="false"
     showguides="true" />
  <title
     id="title1">OpenSCAD Model</title>
  <path
     d="M 3.8744,-2.00394 3.62523,-2.03542 3.38196,-2.09789 3.14844,-2.19034 2.92834,-2.31134 2.72514,-2.45897 2.54205,-2.63091 2.38196,-2.82442 2.24738,-3.03648 2.14044,-3.26375 2.06282,-3.50261 2.01576,-3.74933 2,-4 2.01576,-4.25066 2.06282,-4.49738 2.14044,-4.73624 2.24738,-4.9635 2.38196,-5.17557 2.54205,-5.36908 2.72514,-5.54102 2.92834,-5.68864 3.14844,-5.80965 3.38196,-5.9021 3.62523,-5.96457 3.8744,-5.99605 h 0.25118 l 0.24918,0.03148 0.24327,0.06247 0.23352,0.09245 0.22009,0.12101 0.2032,0.14762 0.18309,0.17194 0.1601,0.19351 0.13458,0.21207 0.10693,0.22726 0.07762,0.23886 0.04706,0.24672 L 6,-4 l -0.01578,0.25067 -0.04706,0.24672 -0.07762,0.23886 -0.10693,0.22727 -0.13458,0.21206 -0.1601,0.19351 -0.18309,0.17194 -0.2032,0.14763 -0.22009,0.121 -0.23352,0.09245 -0.24327,0.06247 -0.24918,0.03148 z"
     id="path6"
     style="fill:none;stroke:#ff0000;stroke-opacity:1;vector-effect:non-scaling-stroke;-inkscape-stroke:hairline;stroke-width:0.26458333;stroke-dasharray:none" />
  <path
     d="m 135.874,-50.0039 -0.249,-0.0315 -0.243,-0.0625 -0.234,-0.0924 -0.22,-0.121 -0.203,-0.1477 -0.183,-0.1719 -0.16,-0.1935 -0.135,-0.2121 -0.107,-0.2272 -0.077,-0.2389 -0.047,-0.2467 L 134,-52 l 0.016,-0.2507 0.047,-0.2467 0.077,-0.2388 0.107,-0.2273 0.135,-0.2121 0.16,-0.1935 0.183,-0.1719 0.203,-0.1476 0.22,-0.121 0.234,-0.0925 0.243,-0.0625 0.249,-0.0314 h 0.252 l 0.249,0.0314 0.243,0.0625 0.234,0.0925 0.22,0.121 0.203,0.1476 0.183,0.1719 0.16,0.1935 0.135,0.2121 0.107,0.2273 0.077,0.2388 0.047,0.2467 L 138,-52 l -0.016,0.2507 -0.047,0.2467 -0.077,0.2389 -0.107,0.2272 -0.135,0.2121 -0.16,0.1935 -0.183,0.1719 -0.203,0.1477 -0.22,0.121 -0.234,0.0924 -0.243,0.0625 -0.249,0.0315 z"
     id="path4"
     style="fill:none;stroke:#ff0000;stroke-opacity:1;vector-effect:non-scaling-stroke;-inkscape-stroke:hairline;stroke-width:0.26458333;stroke-dasharray:none" />
  <path
     d="M 3.8744,-50.0039 3.62523,-50.0354 3.38196,-50.0979 3.14844,-50.1903 2.92834,-50.3113 2.72514,-50.459 2.54205,-50.6309 2.38196,-50.8244 2.24738,-51.0365 2.14044,-51.2637 2.06282,-51.5026 2.01576,-51.7493 2,-52 l 0.01576,-0.2507 0.04706,-0.2467 0.07762,-0.2388 0.10694,-0.2273 0.13458,-0.2121 0.16009,-0.1935 0.18309,-0.1719 0.2032,-0.1476 0.2201,-0.121 0.23352,-0.0925 0.24327,-0.0625 0.24917,-0.0314 h 0.25118 l 0.24918,0.0314 0.24327,0.0625 0.23352,0.0925 0.22009,0.121 0.2032,0.1476 0.18309,0.1719 0.1601,0.1935 0.13458,0.2121 0.10693,0.2273 0.07762,0.2388 0.04706,0.2467 L 6,-52 l -0.01578,0.2507 -0.04706,0.2467 -0.07762,0.2389 -0.10693,0.2272 -0.13458,0.2121 -0.1601,0.1935 -0.18309,0.1719 -0.2032,0.1477 -0.22009,0.121 -0.23352,0.0924 -0.24327,0.0625 -0.24918,0.0315 z"
     id="path3"
     style="fill:none;stroke:#ff0000;stroke-opacity:1;vector-effect:non-scaling-stroke;-inkscape-stroke:hairline;stroke-width:0.26458333;stroke-dasharray:none" />
  <path
     d="m 138.843,2.42029 0.548,-0.14055 0.525,-0.20802 0.495,-0.27225 0.457,-0.33217 0.412,-0.38684 0.361,-0.43544 0.302,-0.477143 0.241,-0.511307 0.175,-0.53746 0.106,-0.5551 L 142.5,-2 v -52 l -0.035,-0.564 -0.106,-0.5551 -0.175,-0.5375 -0.241,-0.5113 -0.302,-0.4771 -0.361,-0.4355 -0.412,-0.3868 -0.457,-0.3322 -0.495,-0.2722 -0.525,-0.2081 -0.548,-0.1405 -0.56,-0.0708 H 1.71744 l -0.56066,0.0708 -0.547359,0.1405 -0.5254366,0.2081 -0.4951934,0.2722 -0.457184,0.3322 -0.411957,0.3868 -0.36021,0.4355 -0.30281,0.4771 -0.24062,0.5113 -0.17462,0.5375 -0.1059,0.5551 L -2.5,-54 v 52 l 0.03549,0.56401 0.1059,0.5551 0.17462,0.53746 0.24062,0.511307 0.30281,0.477143 0.36021,0.43544 0.411957,0.38684 0.457184,0.33217 L 0.0839844,2.07172 0.609421,2.27974 1.15678,2.42029 1.71744,2.49112 H 138.283 Z"
     id="path1"
     style="fill:none;stroke:#ff0000;stroke-opacity:1;vector-effect:non-scaling-stroke;-inkscape-stroke:hairline;stroke-width:0.26458333;stroke-dasharray:none" />
  <metadata
     id="metadata6">
    <rdf:RDF>
      <cc:Work
         rdf:about="">
        <dc:title>OpenSCAD Model</dc:title>
      </cc:Work>
    </rdf:RDF>
  </metadata>
  <circle
     style="vector-effect:non-scaling-stroke;fill:none;stroke:#ff0000;stroke-width:0.264583;-inkscape-stroke:hairline"
     id="path2"
     cx="80.659294"
     cy="-45.477268"
     r="3.5" />
</svg>
