<?xml version="1.0" standalone="no"?>
<!DOCTYPE svg PUBLIC "-//W3C//DTD SVG 1.1//EN" "http://www.w3.org/Graphics/SVG/1.1/DTD/svg11.dtd">
<svg width="146mm" height="62mm" viewBox="-3 -59 146 62" xmlns="http://www.w3.org/2000/svg" version="1.1">
<title>OpenSCAD Model</title>
<path d="
M 138.843,2.42029 L 139.391,2.27974 L 139.916,2.07172 L 140.411,1.79947 L 140.868,1.4673 L 141.28,1.08046
 L 141.641,0.64502 L 141.943,0.167877 L 142.184,-0.34343 L 142.359,-0.88089 L 142.465,-1.43599 L 142.5,-2
 L 142.5,-54 L 142.465,-54.564 L 142.359,-55.1191 L 142.184,-55.6566 L 141.943,-56.1679 L 141.641,-56.645
 L 141.28,-57.0805 L 140.868,-57.4673 L 140.411,-57.7995 L 139.916,-58.0717 L 139.391,-58.2798 L 138.843,-58.4203
 L 138.283,-58.4911 L 1.71744,-58.4911 L 1.15678,-58.4203 L 0.609421,-58.2798 L 0.0839844,-58.0717 L -0.411209,-57.7995
 L -0.868393,-57.4673 L -1.28035,-57.0805 L -1.64056,-56.645 L -1.94337,-56.1679 L -2.18399,-55.6566 L -2.35861,-55.1191
 L -2.46451,-54.564 L -2.5,-54 L -2.5,-2 L -2.46451,-1.43599 L -2.35861,-0.88089 L -2.18399,-0.34343
 L -1.94337,0.167877 L -1.64056,0.64502 L -1.28035,1.08046 L -0.868393,1.4673 L -0.411209,1.79947 L 0.0839844,2.07172
 L 0.609421,2.27974 L 1.15678,2.42029 L 1.71744,2.49112 L 138.283,2.49112 z
M 3.8744,-50.0039 L 3.62523,-50.0354 L 3.38196,-50.0979 L 3.14844,-50.1903 L 2.92834,-50.3113 L 2.72514,-50.459
 L 2.54205,-50.6309 L 2.38196,-50.8244 L 2.24738,-51.0365 L 2.14044,-51.2637 L 2.06282,-51.5026 L 2.01576,-51.7493
 L 2,-52 L 2.01576,-52.2507 L 2.06282,-52.4974 L 2.14044,-52.7362 L 2.24738,-52.9635 L 2.38196,-53.1756
 L 2.54205,-53.3691 L 2.72514,-53.541 L 2.92834,-53.6886 L 3.14844,-53.8096 L 3.38196,-53.9021 L 3.62523,-53.9646
 L 3.8744,-53.996 L 4.12558,-53.996 L 4.37476,-53.9646 L 4.61803,-53.9021 L 4.85155,-53.8096 L 5.07164,-53.6886
 L 5.27484,-53.541 L 5.45793,-53.3691 L 5.61803,-53.1756 L 5.75261,-52.9635 L 5.85954,-52.7362 L 5.93716,-52.4974
 L 5.98422,-52.2507 L 6,-52 L 5.98422,-51.7493 L 5.93716,-51.5026 L 5.85954,-51.2637 L 5.75261,-51.0365
 L 5.61803,-50.8244 L 5.45793,-50.6309 L 5.27484,-50.459 L 5.07164,-50.3113 L 4.85155,-50.1903 L 4.61803,-50.0979
 L 4.37476,-50.0354 L 4.12558,-50.0039 z
M 135.874,-50.0039 L 135.625,-50.0354 L 135.382,-50.0979 L 135.148,-50.1903 L 134.928,-50.3113 L 134.725,-50.459
 L 134.542,-50.6309 L 134.382,-50.8244 L 134.247,-51.0365 L 134.14,-51.2637 L 134.063,-51.5026 L 134.016,-51.7493
 L 134,-52 L 134.016,-52.2507 L 134.063,-52.4974 L 134.14,-52.7362 L 134.247,-52.9635 L 134.382,-53.1756
 L 134.542,-53.3691 L 134.725,-53.541 L 134.928,-53.6886 L 135.148,-53.8096 L 135.382,-53.9021 L 135.625,-53.9646
 L 135.874,-53.996 L 136.126,-53.996 L 136.375,-53.9646 L 136.618,-53.9021 L 136.852,-53.8096 L 137.072,-53.6886
 L 137.275,-53.541 L 137.458,-53.3691 L 137.618,-53.1756 L 137.753,-52.9635 L 137.86,-52.7362 L 137.937,-52.4974
 L 137.984,-52.2507 L 138,-52 L 137.984,-51.7493 L 137.937,-51.5026 L 137.86,-51.2637 L 137.753,-51.0365
 L 137.618,-50.8244 L 137.458,-50.6309 L 137.275,-50.459 L 137.072,-50.3113 L 136.852,-50.1903 L 136.618,-50.0979
 L 136.375,-50.0354 L 136.126,-50.0039 z
M 135.874,-2.00394 L 135.625,-2.03542 L 135.382,-2.09789 L 135.148,-2.19034 L 134.928,-2.31134 L 134.725,-2.45897
 L 134.542,-2.63091 L 134.382,-2.82442 L 134.247,-3.03648 L 134.14,-3.26375 L 134.063,-3.50261 L 134.016,-3.74933
 L 134,-4 L 134.016,-4.25066 L 134.063,-4.49738 L 134.14,-4.73624 L 134.247,-4.9635 L 134.382,-5.17557
 L 134.542,-5.36908 L 134.725,-5.54102 L 134.928,-5.68864 L 135.148,-5.80965 L 135.382,-5.9021 L 135.625,-5.96457
 L 135.874,-5.99605 L 136.126,-5.99605 L 136.375,-5.96457 L 136.618,-5.9021 L 136.852,-5.80965 L 137.072,-5.68864
 L 137.275,-5.54102 L 137.458,-5.36908 L 137.618,-5.17557 L 137.753,-4.9635 L 137.86,-4.73624 L 137.937,-4.49738
 L 137.984,-4.25066 L 138,-4 L 137.984,-3.74933 L 137.937,-3.50261 L 137.86,-3.26375 L 137.753,-3.03648
 L 137.618,-2.82442 L 137.458,-2.63091 L 137.275,-2.45897 L 137.072,-2.31134 L 136.852,-2.19034 L 136.618,-2.09789
 L 136.375,-2.03542 L 136.126,-2.00394 z
M 3.8744,-2.00394 L 3.62523,-2.03542 L 3.38196,-2.09789 L 3.14844,-2.19034 L 2.92834,-2.31134 L 2.72514,-2.45897
 L 2.54205,-2.63091 L 2.38196,-2.82442 L 2.24738,-3.03648 L 2.14044,-3.26375 L 2.06282,-3.50261 L 2.01576,-3.74933
 L 2,-4 L 2.01576,-4.25066 L 2.06282,-4.49738 L 2.14044,-4.73624 L 2.24738,-4.9635 L 2.38196,-5.17557
 L 2.54205,-5.36908 L 2.72514,-5.54102 L 2.92834,-5.68864 L 3.14844,-5.80965 L 3.38196,-5.9021 L 3.62523,-5.96457
 L 3.8744,-5.99605 L 4.12558,-5.99605 L 4.37476,-5.96457 L 4.61803,-5.9021 L 4.85155,-5.80965 L 5.07164,-5.68864
 L 5.27484,-5.54102 L 5.45793,-5.36908 L 5.61803,-5.17557 L 5.75261,-4.9635 L 5.85954,-4.73624 L 5.93716,-4.49738
 L 5.98422,-4.25066 L 6,-4 L 5.98422,-3.74933 L 5.93716,-3.50261 L 5.85954,-3.26375 L 5.75261,-3.03648
 L 5.61803,-2.82442 L 5.45793,-2.63091 L 5.27484,-2.45897 L 5.07164,-2.31134 L 4.85155,-2.19034 L 4.61803,-2.09789
 L 4.37476,-2.03542 L 4.12558,-2.00394 z
" stroke="black" fill="lightgray" stroke-width="0.5"/>
</svg>
