<?xml version="1.0" encoding="UTF-8" standalone="no"?>
<svg
   width="200mm"
   height="110mm"
   viewBox="-9 -99 200 110"
   version="1.1"
   id="svg1"
   sodipodi:docname="newremoteboxlid.svg"
   inkscape:version="1.3.2 (091e20e, 2023-11-25)"
   xmlns:inkscape="http://www.inkscape.org/namespaces/inkscape"
   xmlns:sodipodi="http://sodipodi.sourceforge.net/DTD/sodipodi-0.dtd"
   xmlns="http://www.w3.org/2000/svg"
   xmlns:svg="http://www.w3.org/2000/svg"
   xmlns:rdf="http://www.w3.org/1999/02/22-rdf-syntax-ns#"
   xmlns:cc="http://creativecommons.org/ns#"
   xmlns:dc="http://purl.org/dc/elements/1.1/">
  <defs
     id="defs1" />
  <sodipodi:namedview
     id="namedview1"
     pagecolor="#ffffff"
     bordercolor="#000000"
     borderopacity="0.25"
     inkscape:showpageshadow="2"
     inkscape:pageopacity="0.0"
     inkscape:pagecheckerboard="0"
     inkscape:deskcolor="#d1d1d1"
     inkscape:document-units="mm"
     inkscape:zoom="0.82612584"
     inkscape:cx="358.29892"
     inkscape:cy="231.80488"
     inkscape:window-width="1312"
     inkscape:window-height="826"
     inkscape:window-x="0"
     inkscape:window-y="38"
     inkscape:window-maximized="0"
     inkscape:current-layer="svg1" />
  <title
     id="title1">OpenSCAD Model</title>
  <g
     id="g1"
     transform="translate(1.0583333,1.0583333)">
    <path
       style="vector-effect:non-scaling-stroke;fill:none;stroke:#ff0000;stroke-width:0.264583;stroke-dasharray:none;stroke-opacity:1;-inkscape-stroke:hairline"
       d="M 181.765,3.48152 181.536,3.42657 181.319,3.3365 181.118,3.21352 180.939,3.06065 180.786,2.88167 180.663,2.68098 180.573,2.46352 180.518,2.23465 180.5,2 l 0.018,-0.23466 0.055,-0.22887 0.09,-0.21747 0.123,-0.20068 0.153,-0.178989 0.179,-0.152862 0.201,-0.122986 0.217,-0.090073 0.229,-0.054947 L 182,0.5 l 0.235,0.018463 0.229,0.054947 0.217,0.090073 0.201,0.122986 0.179,0.152862 0.153,0.178989 0.123,0.20068 0.09,0.21747 0.055,0.22887 L 183.5,2 l -0.018,0.23465 -0.055,0.22887 -0.09,0.21746 -0.123,0.20069 -0.153,0.17898 -0.179,0.15287 -0.201,0.12298 -0.217,0.09007 -0.229,0.05495 L 182,3.5 Z"
       id="path10" />
    <path
       style="vector-effect:non-scaling-stroke;fill:none;stroke:#ff0000;stroke-width:0.264583;stroke-dasharray:none;stroke-opacity:1;-inkscape-stroke:hairline"
       d="M -2.23465,3.48152 -2.46352,3.42657 -2.68098,3.3365 -2.88167,3.21352 -3.06065,3.06065 -3.21352,2.88167 -3.3365,2.68098 -3.42657,2.46352 -3.48152,2.23465 -3.5,2 -3.48152,1.76534 -3.42657,1.53647 -3.3365,1.319 -3.21352,1.11832 -3.06065,0.939331 -2.88167,0.786469 -2.68098,0.663483 -2.46352,0.57341 -2.23465,0.518463 -2,0.5 -1.76534,0.518463 -1.53647,0.57341 -1.319,0.663483 -1.11832,0.786469 -0.939331,0.939331 -0.786469,1.11832 -0.663483,1.319 -0.57341,1.53647 -0.518463,1.76534 -0.5,2 -0.518463,2.23465 -0.57341,2.46352 -0.663483,2.68098 -0.786469,2.88167 -0.939331,3.06065 -1.11832,3.21352 -1.319,3.3365 -1.53647,3.42657 -1.76534,3.48152 -2,3.5 Z"
       id="path9" />
    <g
       id="g10"
       transform="translate(121.09409,1.3999316)">
      <path
         style="vector-effect:non-scaling-stroke;fill:none;stroke:#ff0000;stroke-width:0.264583;stroke-dasharray:none;stroke-opacity:1;-inkscape-stroke:hairline"
         d="M 5.81227,-17.8148 5.62917,-17.8587 5.4552,-17.9308 5.29465,-18.0292 5.15146,-18.1515 5.02917,-18.2946 4.93079,-18.4552 4.85872,-18.6292 4.81477,-18.8123 4.79999,-19 l 0.01478,-0.1877 0.04395,-0.1831 0.07207,-0.174 0.09838,-0.1605 0.12229,-0.1432 0.14319,-0.1223 0.16055,-0.0984 0.17397,-0.0721 0.1831,-0.0439 L 6,-20.2 l 0.18771,0.0148 0.18311,0.0439 0.17396,0.0721 0.16056,0.0984 0.14319,0.1223 0.12228,0.1432 0.09839,0.1605 0.07207,0.174 0.04396,0.1831 L 7.2,-19 l -0.01477,0.1877 -0.04396,0.1831 -0.07207,0.174 -0.09839,0.1606 -0.12228,0.1431 -0.14319,0.1223 -0.16056,0.0984 -0.17396,0.0721 -0.18311,0.0439 L 6,-17.8 Z"
         id="path8" />
      <path
         style="vector-effect:non-scaling-stroke;fill:none;stroke:#ff0000;stroke-width:0.264583;stroke-dasharray:none;stroke-opacity:1;-inkscape-stroke:hairline"
         d="m 51.8123,-17.8148 -0.1831,-0.0439 -0.174,-0.0721 -0.1606,-0.0984 -0.1431,-0.1223 -0.1223,-0.1431 -0.0984,-0.1606 -0.0721,-0.174 -0.0439,-0.1831 L 50.8,-19 l 0.0148,-0.1877 0.0439,-0.1831 0.0721,-0.174 0.0984,-0.1605 0.1223,-0.1432 0.1431,-0.1223 0.1606,-0.0984 0.174,-0.0721 0.1831,-0.0439 L 52,-20.2 l 0.1877,0.0148 0.1831,0.0439 0.174,0.0721 0.1605,0.0984 0.1432,0.1223 0.1223,0.1432 0.0984,0.1605 0.0721,0.174 0.0439,0.1831 L 53.2,-19 l -0.0148,0.1877 -0.0439,0.1831 -0.0721,0.174 -0.0984,0.1606 -0.1223,0.1431 -0.1432,0.1223 -0.1605,0.0984 -0.174,0.0721 -0.1831,0.0439 L 52,-17.8 Z"
         id="path7" />
      <path
         style="vector-effect:non-scaling-stroke;fill:none;stroke:#ff0000;stroke-width:0.264583;stroke-dasharray:none;stroke-opacity:1;-inkscape-stroke:hairline"
         d="M 10,-20 9.37425,-20.0492 8.76393,-20.1958 8.18404,-20.436 7.64885,-20.7639 7.17157,-21.1716 6.76393,-21.6488 6.43597,-22.184 6.19577,-22.7639 6.04924,-23.3743 6,-24 v -49 l 0.04924,-0.6257 0.14653,-0.6104 0.2402,-0.5799 0.32796,-0.5351 0.40764,-0.4773 0.47728,-0.4077 0.53519,-0.3279 0.57989,-0.2402 0.61032,-0.1465 L 10,-77 h 38 l 0.6257,0.0493 0.6104,0.1465 0.5799,0.2402 0.5351,0.3279 0.4773,0.4077 0.4077,0.4773 0.3279,0.5351 0.2402,0.5799 0.1465,0.6104 L 52,-73 v 49 l -0.0493,0.6257 -0.1465,0.6104 -0.2402,0.5799 -0.3279,0.5352 -0.4077,0.4772 -0.4773,0.4077 -0.5351,0.3279 -0.5799,0.2402 -0.6104,0.1466 L 48,-20 Z"
         id="path6" />
      <path
         style="vector-effect:non-scaling-stroke;fill:none;stroke:#ff0000;stroke-width:0.264583;stroke-dasharray:none;stroke-opacity:1;-inkscape-stroke:hairline"
         d="m 51.8123,-76.8148 -0.1831,-0.0439 -0.174,-0.0721 -0.1606,-0.0984 -0.1431,-0.1223 -0.1223,-0.1431 -0.0984,-0.1606 -0.0721,-0.174 -0.0439,-0.1831 L 50.8,-78 l 0.0148,-0.1877 0.0439,-0.1831 0.0721,-0.174 0.0984,-0.1605 0.1223,-0.1432 0.1431,-0.1223 0.1606,-0.0984 0.174,-0.0721 0.1831,-0.0439 L 52,-79.2 l 0.1877,0.0148 0.1831,0.0439 0.174,0.0721 0.1605,0.0984 0.1432,0.1223 0.1223,0.1432 0.0984,0.1605 0.0721,0.174 0.0439,0.1831 L 53.2,-78 l -0.0148,0.1877 -0.0439,0.1831 -0.0721,0.174 -0.0984,0.1606 -0.1223,0.1431 -0.1432,0.1223 -0.1605,0.0984 -0.174,0.0721 -0.1831,0.0439 L 52,-76.8 Z"
         id="path5" />
      <path
         style="vector-effect:non-scaling-stroke;fill:none;stroke:#ff0000;stroke-width:0.264583;stroke-dasharray:none;stroke-opacity:1;-inkscape-stroke:hairline"
         d="M 5.81227,-76.8148 5.62917,-76.8587 5.4552,-76.9308 5.29465,-77.0292 5.15146,-77.1515 5.02917,-77.2946 4.93079,-77.4552 4.85872,-77.6292 4.81477,-77.8123 4.79999,-78 l 0.01478,-0.1877 0.04395,-0.1831 0.07207,-0.174 0.09838,-0.1605 0.12229,-0.1432 0.14319,-0.1223 0.16055,-0.0984 0.17397,-0.0721 0.1831,-0.0439 L 6,-79.2 l 0.18771,0.0148 0.18311,0.0439 0.17396,0.0721 0.16056,0.0984 0.14319,0.1223 0.12228,0.1432 0.09839,0.1605 0.07207,0.174 0.04396,0.1831 L 7.2,-78 l -0.01477,0.1877 -0.04396,0.1831 -0.07207,0.174 -0.09839,0.1606 -0.12228,0.1431 -0.14319,0.1223 -0.16056,0.0984 -0.17396,0.0721 -0.18311,0.0439 L 6,-76.8 Z"
         id="path4" />
    </g>
    <path
       style="vector-effect:non-scaling-stroke;fill:none;stroke:#ff0000;stroke-width:0.264583;stroke-dasharray:none;stroke-opacity:1;-inkscape-stroke:hairline"
       d="m 181.765,-90.5185 -0.229,-0.0549 -0.217,-0.0901 -0.201,-0.123 -0.179,-0.1528 -0.153,-0.179 -0.123,-0.2007 -0.09,-0.2175 -0.055,-0.2289 L 180.5,-92 l 0.018,-0.2346 0.055,-0.2289 0.09,-0.2175 0.123,-0.2007 0.153,-0.179 0.179,-0.1528 0.201,-0.123 0.217,-0.0901 0.229,-0.0549 0.235,-0.0185 0.235,0.0185 0.229,0.0549 0.217,0.0901 0.201,0.123 0.179,0.1528 0.153,0.179 0.123,0.2007 0.09,0.2175 0.055,0.2289 0.018,0.2346 -0.018,0.2346 -0.055,0.2289 -0.09,0.2175 -0.123,0.2007 -0.153,0.179 -0.179,0.1528 -0.201,0.123 -0.217,0.0901 -0.229,0.0549 L 182,-90.5 Z"
       id="path3" />
    <path
       style="vector-effect:non-scaling-stroke;fill:none;stroke:#ff0000;stroke-width:0.264583;stroke-dasharray:none;stroke-opacity:1;-inkscape-stroke:hairline"
       d="m -2.23465,-90.5185 -0.22887,-0.0549 -0.21746,-0.0901 -0.20069,-0.123 -0.17898,-0.1528 -0.15287,-0.179 -0.12298,-0.2007 -0.09007,-0.2175 -0.05495,-0.2289 L -3.5,-92 l 0.01848,-0.2346 0.05495,-0.2289 0.09007,-0.2175 0.12298,-0.2007 0.15287,-0.179 0.17898,-0.1528 0.20069,-0.123 0.21746,-0.0901 0.22887,-0.0549 L -2,-93.5 l 0.23466,0.0185 0.22887,0.0549 0.21747,0.0901 0.20068,0.123 0.178989,0.1528 0.152862,0.179 0.122986,0.2007 0.090073,0.2175 0.054947,0.2289 L -0.5,-92 l -0.018463,0.2346 -0.054947,0.2289 -0.090073,0.2175 -0.122986,0.2007 -0.152862,0.179 -0.178989,0.1528 -0.20068,0.123 -0.21747,0.0901 -0.22887,0.0549 L -2,-90.5 Z"
       id="path2" />
    <path
       style="vector-effect:non-scaling-stroke;fill:none;stroke:#ff0000;stroke-width:0.264583;stroke-dasharray:none;stroke-opacity:1;-inkscape-stroke:hairline"
       d="m 181.408,8.88919 1.373,-0.3297 1.305,-0.54043 1.204,-0.73792 1.074,-0.91719 0.917,-1.0739 0.738,-1.20414 L 188.56,2.78114 188.889,1.4079 189,0 v -90 l -0.111,-1.4079 -0.329,-1.3732 -0.541,-1.3048 -0.738,-1.2042 -0.917,-1.0739 -1.074,-0.9171 -1.204,-0.738 -1.305,-0.5404 -1.373,-0.3297 L 180,-99 H 0 l -1.4079,0.1108 -1.37324,0.3297 -1.30477,0.5404 -1.20414,0.738 -1.0739,0.9171 -0.91719,1.0739 -0.73792,1.2042 -0.54043,1.3048 -0.3297,1.3732 L -9,-90 V 0 l 0.11081,1.4079 0.3297,1.37324 0.54043,1.30477 0.73792,1.20414 0.91719,1.0739 1.0739,0.91719 1.20414,0.73792 1.30477,0.54043 1.37324,0.3297 L 0,9 h 180 z"
       id="path1" />
    <g
       id="g12"
       transform="translate(-12.516964,-8.129231)">
      <circle
         style="vector-effect:non-scaling-stroke;fill:none;stroke:#ff0000;stroke-width:0.264583;stroke-dasharray:none;stroke-opacity:1;-inkscape-stroke:hairline"
         id="path11"
         cx="19.183762"
         cy="-69.670837"
         r="3.4000001" />
      <circle
         style="vector-effect:non-scaling-stroke;fill:none;stroke:#ff0000;stroke-width:0.264583;stroke-dasharray:none;stroke-opacity:1;-inkscape-stroke:hairline"
         id="path11-0"
         cx="33.500286"
         cy="-69.670837"
         r="3.4000001" />
      <circle
         style="vector-effect:non-scaling-stroke;fill:none;stroke:#ff0000;stroke-width:0.264583;stroke-dasharray:none;stroke-opacity:1;-inkscape-stroke:hairline"
         id="path11-9"
         cx="47.816807"
         cy="-69.670837"
         r="3.4000001" />
      <circle
         style="vector-effect:non-scaling-stroke;fill:none;stroke:#ff0000;stroke-width:0.264583;stroke-dasharray:none;stroke-opacity:1;-inkscape-stroke:hairline"
         id="path11-98"
         cx="62.133331"
         cy="-69.670837"
         r="3.4000001" />
    </g>
    <g
       id="g11"
       transform="translate(-12.516965,-15.867014)">
      <circle
         style="vector-effect:non-scaling-stroke;fill:none;stroke:#ff0000;stroke-width:0.264583;stroke-dasharray:none;stroke-opacity:1;-inkscape-stroke:hairline"
         id="path11-6"
         cx="19.183762"
         cy="-45.441399"
         r="3.4000001" />
      <circle
         style="vector-effect:non-scaling-stroke;fill:none;stroke:#ff0000;stroke-width:0.264583;stroke-dasharray:none;stroke-opacity:1;-inkscape-stroke:hairline"
         id="path11-0-2"
         cx="33.500286"
         cy="-45.441399"
         r="3.4000001" />
      <circle
         style="vector-effect:non-scaling-stroke;fill:none;stroke:#ff0000;stroke-width:0.264583;stroke-dasharray:none;stroke-opacity:1;-inkscape-stroke:hairline"
         id="path11-9-7"
         cx="47.816807"
         cy="-45.441399"
         r="3.4000001" />
      <circle
         style="vector-effect:non-scaling-stroke;fill:none;stroke:#ff0000;stroke-width:0.264583;stroke-dasharray:none;stroke-opacity:1;-inkscape-stroke:hairline"
         id="path11-98-0"
         cx="62.133335"
         cy="-45.441399"
         r="3.4000001" />
    </g>
    <g
       id="g13"
       transform="translate(-12.516964,-22.616687)">
      <circle
         style="vector-effect:non-scaling-stroke;fill:none;stroke:#ff0000;stroke-width:0.264583;stroke-dasharray:none;stroke-opacity:1;-inkscape-stroke:hairline"
         id="path11-91"
         cx="19.183762"
         cy="-22.200069"
         r="3.4000001" />
      <circle
         style="vector-effect:non-scaling-stroke;fill:none;stroke:#ff0000;stroke-width:0.264583;stroke-dasharray:none;stroke-opacity:1;-inkscape-stroke:hairline"
         id="path11-0-7"
         cx="33.500286"
         cy="-22.200069"
         r="3.4000001" />
      <circle
         style="vector-effect:non-scaling-stroke;fill:none;stroke:#ff0000;stroke-width:0.264583;stroke-dasharray:none;stroke-opacity:1;-inkscape-stroke:hairline"
         id="path11-9-2"
         cx="47.816807"
         cy="-22.200069"
         r="3.4000001" />
      <circle
         style="vector-effect:non-scaling-stroke;fill:none;stroke:#ff0000;stroke-width:0.264583;stroke-dasharray:none;stroke-opacity:1;-inkscape-stroke:hairline"
         id="path11-98-3"
         cx="62.133331"
         cy="-22.200069"
         r="3.4000001" />
    </g>
    <circle
       style="vector-effect:non-scaling-stroke;fill:none;stroke:#ff0000;stroke-width:0.264583;stroke-dasharray:none;stroke-opacity:1;-inkscape-stroke:hairline"
       id="path11-9-2-7-8"
       cx="49.616367"
       cy="-6.700572"
       r="3.4000001" />
    <g
       id="g14"
       transform="translate(-4.1259767e-8,-4.8040502)">
      <circle
         style="vector-effect:non-scaling-stroke;fill:none;stroke:#ff0000;stroke-width:0.264583;stroke-dasharray:none;stroke-opacity:1;-inkscape-stroke:hairline"
         id="path11-91-1"
         cx="6.6667976"
         cy="-23.521049"
         r="3.4000001" />
      <circle
         style="vector-effect:non-scaling-stroke;fill:none;stroke:#ff0000;stroke-width:0.264583;stroke-dasharray:none;stroke-opacity:1;-inkscape-stroke:hairline"
         id="path11-0-7-4"
         cx="20.983322"
         cy="-23.521049"
         r="3.4000001" />
      <circle
         style="vector-effect:non-scaling-stroke;fill:none;stroke:#ff0000;stroke-width:0.264583;stroke-dasharray:none;stroke-opacity:1;-inkscape-stroke:hairline"
         id="path11-9-2-7"
         cx="35.299843"
         cy="-23.521049"
         r="3.4000001" />
      <circle
         style="vector-effect:non-scaling-stroke;fill:none;stroke:#ff0000;stroke-width:0.264583;stroke-dasharray:none;stroke-opacity:1;-inkscape-stroke:hairline"
         id="path11-98-3-1"
         cx="49.616367"
         cy="-23.521049"
         r="3.4000001" />
    </g>
  </g>
  <metadata
     id="metadata1">
    <rdf:RDF>
      <cc:Work
         rdf:about="">
        <dc:title>OpenSCAD Model</dc:title>
      </cc:Work>
    </rdf:RDF>
  </metadata>
</svg>
