<?xml version="1.0" standalone="no"?>
<!DOCTYPE svg PUBLIC "-//W3C//DTD SVG 1.1//EN" "http://www.w3.org/Graphics/SVG/1.1/DTD/svg11.dtd">
<svg width="198mm" height="108mm" viewBox="-9 -99 198 108" xmlns="http://www.w3.org/2000/svg" version="1.1">
<title>OpenSCAD Model</title>
<path d="
M 181.408,8.88919 L 182.781,8.55949 L 184.086,8.01906 L 185.29,7.28114 L 186.364,6.36395 L 187.281,5.29005
 L 188.019,4.08591 L 188.56,2.78114 L 188.889,1.4079 L 189,-0 L 189,-90 L 188.889,-91.4079
 L 188.56,-92.7811 L 188.019,-94.0859 L 187.281,-95.2901 L 186.364,-96.364 L 185.29,-97.2811 L 184.086,-98.0191
 L 182.781,-98.5595 L 181.408,-98.8892 L 180,-99 L 0,-99 L -1.4079,-98.8892 L -2.78114,-98.5595
 L -4.08591,-98.0191 L -5.29005,-97.2811 L -6.36395,-96.364 L -7.28114,-95.2901 L -8.01906,-94.0859 L -8.55949,-92.7811
 L -8.88919,-91.4079 L -9,-90 L -9,-0 L -8.88919,1.4079 L -8.55949,2.78114 L -8.01906,4.08591
 L -7.28114,5.29005 L -6.36395,6.36395 L -5.29005,7.28114 L -4.08591,8.01906 L -2.78114,8.55949 L -1.4079,8.88919
 L 0,9 L 180,9 z
M -2.23465,-90.5185 L -2.46352,-90.5734 L -2.68098,-90.6635 L -2.88167,-90.7865 L -3.06065,-90.9393 L -3.21352,-91.1183
 L -3.3365,-91.319 L -3.42657,-91.5365 L -3.48152,-91.7654 L -3.5,-92 L -3.48152,-92.2346 L -3.42657,-92.4635
 L -3.3365,-92.681 L -3.21352,-92.8817 L -3.06065,-93.0607 L -2.88167,-93.2135 L -2.68098,-93.3365 L -2.46352,-93.4266
 L -2.23465,-93.4815 L -2,-93.5 L -1.76534,-93.4815 L -1.53647,-93.4266 L -1.319,-93.3365 L -1.11832,-93.2135
 L -0.939331,-93.0607 L -0.786469,-92.8817 L -0.663483,-92.681 L -0.57341,-92.4635 L -0.518463,-92.2346 L -0.5,-92
 L -0.518463,-91.7654 L -0.57341,-91.5365 L -0.663483,-91.319 L -0.786469,-91.1183 L -0.939331,-90.9393 L -1.11832,-90.7865
 L -1.319,-90.6635 L -1.53647,-90.5734 L -1.76534,-90.5185 L -2,-90.5 z
M 181.765,-90.5185 L 181.536,-90.5734 L 181.319,-90.6635 L 181.118,-90.7865 L 180.939,-90.9393 L 180.786,-91.1183
 L 180.663,-91.319 L 180.573,-91.5365 L 180.518,-91.7654 L 180.5,-92 L 180.518,-92.2346 L 180.573,-92.4635
 L 180.663,-92.681 L 180.786,-92.8817 L 180.939,-93.0607 L 181.118,-93.2135 L 181.319,-93.3365 L 181.536,-93.4266
 L 181.765,-93.4815 L 182,-93.5 L 182.235,-93.4815 L 182.464,-93.4266 L 182.681,-93.3365 L 182.882,-93.2135
 L 183.061,-93.0607 L 183.214,-92.8817 L 183.337,-92.681 L 183.427,-92.4635 L 183.482,-92.2346 L 183.5,-92
 L 183.482,-91.7654 L 183.427,-91.5365 L 183.337,-91.319 L 183.214,-91.1183 L 183.061,-90.9393 L 182.882,-90.7865
 L 182.681,-90.6635 L 182.464,-90.5734 L 182.235,-90.5185 L 182,-90.5 z
M 5.81227,-76.8148 L 5.62917,-76.8587 L 5.4552,-76.9308 L 5.29465,-77.0292 L 5.15146,-77.1515 L 5.02917,-77.2946
 L 4.93079,-77.4552 L 4.85872,-77.6292 L 4.81477,-77.8123 L 4.79999,-78 L 4.81477,-78.1877 L 4.85872,-78.3708
 L 4.93079,-78.5448 L 5.02917,-78.7053 L 5.15146,-78.8485 L 5.29465,-78.9708 L 5.4552,-79.0692 L 5.62917,-79.1413
 L 5.81227,-79.1852 L 6,-79.2 L 6.18771,-79.1852 L 6.37082,-79.1413 L 6.54478,-79.0692 L 6.70534,-78.9708
 L 6.84853,-78.8485 L 6.97081,-78.7053 L 7.0692,-78.5448 L 7.14127,-78.3708 L 7.18523,-78.1877 L 7.2,-78
 L 7.18523,-77.8123 L 7.14127,-77.6292 L 7.0692,-77.4552 L 6.97081,-77.2946 L 6.84853,-77.1515 L 6.70534,-77.0292
 L 6.54478,-76.9308 L 6.37082,-76.8587 L 6.18771,-76.8148 L 6,-76.8 z
M 51.8123,-76.8148 L 51.6292,-76.8587 L 51.4552,-76.9308 L 51.2946,-77.0292 L 51.1515,-77.1515 L 51.0292,-77.2946
 L 50.9308,-77.4552 L 50.8587,-77.6292 L 50.8148,-77.8123 L 50.8,-78 L 50.8148,-78.1877 L 50.8587,-78.3708
 L 50.9308,-78.5448 L 51.0292,-78.7053 L 51.1515,-78.8485 L 51.2946,-78.9708 L 51.4552,-79.0692 L 51.6292,-79.1413
 L 51.8123,-79.1852 L 52,-79.2 L 52.1877,-79.1852 L 52.3708,-79.1413 L 52.5448,-79.0692 L 52.7053,-78.9708
 L 52.8485,-78.8485 L 52.9708,-78.7053 L 53.0692,-78.5448 L 53.1413,-78.3708 L 53.1852,-78.1877 L 53.2,-78
 L 53.1852,-77.8123 L 53.1413,-77.6292 L 53.0692,-77.4552 L 52.9708,-77.2946 L 52.8485,-77.1515 L 52.7053,-77.0292
 L 52.5448,-76.9308 L 52.3708,-76.8587 L 52.1877,-76.8148 L 52,-76.8 z
M 10,-20 L 9.37425,-20.0492 L 8.76393,-20.1958 L 8.18404,-20.436 L 7.64885,-20.7639 L 7.17157,-21.1716
 L 6.76393,-21.6488 L 6.43597,-22.184 L 6.19577,-22.7639 L 6.04924,-23.3743 L 6,-24 L 6,-73
 L 6.04924,-73.6257 L 6.19577,-74.2361 L 6.43597,-74.816 L 6.76393,-75.3511 L 7.17157,-75.8284 L 7.64885,-76.2361
 L 8.18404,-76.564 L 8.76393,-76.8042 L 9.37425,-76.9507 L 10,-77 L 48,-77 L 48.6257,-76.9507
 L 49.2361,-76.8042 L 49.816,-76.564 L 50.3511,-76.2361 L 50.8284,-75.8284 L 51.2361,-75.3511 L 51.564,-74.816
 L 51.8042,-74.2361 L 51.9507,-73.6257 L 52,-73 L 52,-24 L 51.9507,-23.3743 L 51.8042,-22.7639
 L 51.564,-22.184 L 51.2361,-21.6488 L 50.8284,-21.1716 L 50.3511,-20.7639 L 49.816,-20.436 L 49.2361,-20.1958
 L 48.6257,-20.0492 L 48,-20 z
M 51.8123,-17.8148 L 51.6292,-17.8587 L 51.4552,-17.9308 L 51.2946,-18.0292 L 51.1515,-18.1515 L 51.0292,-18.2946
 L 50.9308,-18.4552 L 50.8587,-18.6292 L 50.8148,-18.8123 L 50.8,-19 L 50.8148,-19.1877 L 50.8587,-19.3708
 L 50.9308,-19.5448 L 51.0292,-19.7053 L 51.1515,-19.8485 L 51.2946,-19.9708 L 51.4552,-20.0692 L 51.6292,-20.1413
 L 51.8123,-20.1852 L 52,-20.2 L 52.1877,-20.1852 L 52.3708,-20.1413 L 52.5448,-20.0692 L 52.7053,-19.9708
 L 52.8485,-19.8485 L 52.9708,-19.7053 L 53.0692,-19.5448 L 53.1413,-19.3708 L 53.1852,-19.1877 L 53.2,-19
 L 53.1852,-18.8123 L 53.1413,-18.6292 L 53.0692,-18.4552 L 52.9708,-18.2946 L 52.8485,-18.1515 L 52.7053,-18.0292
 L 52.5448,-17.9308 L 52.3708,-17.8587 L 52.1877,-17.8148 L 52,-17.8 z
M 5.81227,-17.8148 L 5.62917,-17.8587 L 5.4552,-17.9308 L 5.29465,-18.0292 L 5.15146,-18.1515 L 5.02917,-18.2946
 L 4.93079,-18.4552 L 4.85872,-18.6292 L 4.81477,-18.8123 L 4.79999,-19 L 4.81477,-19.1877 L 4.85872,-19.3708
 L 4.93079,-19.5448 L 5.02917,-19.7053 L 5.15146,-19.8485 L 5.29465,-19.9708 L 5.4552,-20.0692 L 5.62917,-20.1413
 L 5.81227,-20.1852 L 6,-20.2 L 6.18771,-20.1852 L 6.37082,-20.1413 L 6.54478,-20.0692 L 6.70534,-19.9708
 L 6.84853,-19.8485 L 6.97081,-19.7053 L 7.0692,-19.5448 L 7.14127,-19.3708 L 7.18523,-19.1877 L 7.2,-19
 L 7.18523,-18.8123 L 7.14127,-18.6292 L 7.0692,-18.4552 L 6.97081,-18.2946 L 6.84853,-18.1515 L 6.70534,-18.0292
 L 6.54478,-17.9308 L 6.37082,-17.8587 L 6.18771,-17.8148 L 6,-17.8 z
M -2.23465,3.48152 L -2.46352,3.42657 L -2.68098,3.3365 L -2.88167,3.21352 L -3.06065,3.06065 L -3.21352,2.88167
 L -3.3365,2.68098 L -3.42657,2.46352 L -3.48152,2.23465 L -3.5,2 L -3.48152,1.76534 L -3.42657,1.53647
 L -3.3365,1.319 L -3.21352,1.11832 L -3.06065,0.939331 L -2.88167,0.786469 L -2.68098,0.663483 L -2.46352,0.57341
 L -2.23465,0.518463 L -2,0.5 L -1.76534,0.518463 L -1.53647,0.57341 L -1.319,0.663483 L -1.11832,0.786469
 L -0.939331,0.939331 L -0.786469,1.11832 L -0.663483,1.319 L -0.57341,1.53647 L -0.518463,1.76534 L -0.5,2
 L -0.518463,2.23465 L -0.57341,2.46352 L -0.663483,2.68098 L -0.786469,2.88167 L -0.939331,3.06065 L -1.11832,3.21352
 L -1.319,3.3365 L -1.53647,3.42657 L -1.76534,3.48152 L -2,3.5 z
M 181.765,3.48152 L 181.536,3.42657 L 181.319,3.3365 L 181.118,3.21352 L 180.939,3.06065 L 180.786,2.88167
 L 180.663,2.68098 L 180.573,2.46352 L 180.518,2.23465 L 180.5,2 L 180.518,1.76534 L 180.573,1.53647
 L 180.663,1.319 L 180.786,1.11832 L 180.939,0.939331 L 181.118,0.786469 L 181.319,0.663483 L 181.536,0.57341
 L 181.765,0.518463 L 182,0.5 L 182.235,0.518463 L 182.464,0.57341 L 182.681,0.663483 L 182.882,0.786469
 L 183.061,0.939331 L 183.214,1.11832 L 183.337,1.319 L 183.427,1.53647 L 183.482,1.76534 L 183.5,2
 L 183.482,2.23465 L 183.427,2.46352 L 183.337,2.68098 L 183.214,2.88167 L 183.061,3.06065 L 182.882,3.21352
 L 182.681,3.3365 L 182.464,3.42657 L 182.235,3.48152 L 182,3.5 z
" stroke="black" fill="lightgray" stroke-width="0.5"/>
</svg>
